<svg width="1087" height="293" viewBox="0 0 1087 293" fill="none" xmlns="http://www.w3.org/2000/svg">
<g clip-path="url(#clip0_67_17)">
<path fill-rule="evenodd" clip-rule="evenodd" d="M157.131 11.0563C146.744 18.4197 138.868 27.9426 136.538 40.7244C128.568 43.7868 121.825 47.2385 115.278 52.8005C113.618 54.2103 111.685 55.532 109.824 56.6624C109.148 56.6687 108.889 56.4179 108.421 55.965C108.262 55.8115 108.079 55.6347 107.848 55.4369C107.458 54.86 106.88 54.2456 106.356 53.6893C106.229 53.5537 106.105 53.4215 105.987 53.2942C98.0419 43.2343 90.786 37.7771 77.571 35.8438C69.517 34.6654 61.6009 38.7073 55.4829 43.6381C46.2369 51.0899 42.042 58.5864 39.476 69.9823C38.143 74.8342 38.7109 86.828 40.4959 91.6372C46.6779 108.284 63.1819 115.356 80.0419 114.189C77.6089 124.145 66.6399 136.331 58.0069 141.585C55.1978 143.295 52.1103 144.432 49.0096 145.573C45.969 146.692 42.9157 147.816 40.0999 149.49C43.3229 151.571 48.4989 153.538 52.2579 153.407L52.4379 153.949C51.7307 155.185 49.5851 156.679 47.4057 158.197C44.8179 159.999 42.1825 161.834 41.8519 163.309C43.6099 166.8 56.0299 164.621 59.2849 163.734C53.8429 173.731 49.6009 184.536 49.7119 196.077C48.1835 196.884 46.6612 197.683 45.1454 198.479C31.8903 205.438 19.1251 212.141 6.97194 221.252C6.54056 221.575 5.82307 222.044 4.99893 222.583C2.8924 223.96 0.0890808 225.792 -0.414062 226.813L-0.023056 227.005C0.809586 226.615 1.57303 226.07 2.30891 225.545C3.03748 225.025 3.73903 224.524 4.45393 224.212C10.1465 221.731 15.1508 218.532 20.2551 215.269C21.9905 214.16 23.7374 213.043 25.5269 211.945C29.6189 209.434 33.9404 207.238 38.2557 205.045C42.0426 203.121 45.8248 201.199 49.4429 199.069C49.4189 202.927 50.9989 207.487 52.3839 211.128L52.4953 211.005C55.0574 208.182 56.9113 206.14 58.7399 202.727C58.7972 203.032 58.8544 203.338 58.9119 203.645C59.9259 209.069 61.0015 214.822 63.2879 219.807C57.7129 221.418 52.8189 223.246 49.8349 228.687C47.2329 233.43 46.8189 239.613 48.3979 244.742C50.5255 251.655 54.6596 254.896 59.8582 258.972C60.3579 259.363 60.8674 259.763 61.3859 260.174C61.3859 260.174 127.592 282.193 163 288.396C194.965 293.996 232 292.444 232 292.444C232 292.444 270.442 286.945 291.5 278C311.504 269.503 335.434 249.797 335.434 249.797C340.027 239.448 338.577 233.59 330.841 225.603C338.206 220.529 342.613 212.595 346.125 204.6C346.277 205.318 346.483 206.12 346.7 206.963C347.359 209.53 348.117 212.482 347.757 214.607L348.381 214.962C349.473 214.69 350.6 214.026 351.156 213.048C356.463 203.701 355.957 192.205 354.09 182.395C357.984 185.418 360.922 188.229 364.384 191.541C364.712 191.854 365.044 192.171 365.382 192.494C366.788 180.953 365.047 176.943 360.386 166.379C364.766 168.164 367.718 169.997 370.451 174.008C370.488 174.063 370.527 174.12 370.566 174.178C371.506 175.562 373.033 177.81 374.716 177.438C375.538 176.208 375.468 174.578 375.401 173.016C375.39 172.755 375.379 172.497 375.372 172.242C384.764 176.406 394.444 180.876 403.032 186.552C403.379 186.781 403.759 187.052 404.158 187.336C405.387 188.211 406.794 189.212 407.953 189.516L408.099 189.049C404.468 182.347 382.262 172.381 375.128 169.516C374.559 160.399 370.635 151.887 365.605 144.388C365.276 143.898 364.618 143.134 363.882 142.278C362.319 140.462 360.402 138.234 360.522 137.339L362.359 136.963L362.651 136.515C361.722 134.933 360.263 134.796 358.627 134.642C358.329 134.614 358.025 134.586 357.717 134.548C355.245 131.874 353.643 130.2 350.564 128.276C350.743 128.219 350.946 128.155 351.167 128.086C353.419 127.384 357.581 126.085 358.303 124.277L357.843 123.694C356.126 123.019 355.039 123.054 353.292 123.645C353.153 123.718 353.007 123.797 352.856 123.878C351.741 124.48 350.32 125.247 349.207 125.005C349.913 124.168 351.25 123.573 352.418 123.053C352.677 122.938 352.927 122.827 353.161 122.717C353.331 122.561 353.531 122.383 353.751 122.188C355.127 120.965 357.267 119.064 357.483 117.716C356.626 116.856 353.455 116.92 350.747 116.975C349.356 117.003 348.086 117.029 347.316 116.925C332.043 114.872 323.089 104.892 315.953 92.0319C315.152 90.5888 314.341 89.1673 313.528 87.7433C311.586 84.3402 309.636 80.923 307.804 77.1636C308.994 76.2857 310.738 74.613 312.209 73.2018C312.727 72.7049 313.212 72.2405 313.626 71.8546C318.661 66.5644 320.46 62.9912 322.244 55.9853C322.637 54.1581 322.643 52.4774 322.648 50.7514C322.651 50.0543 322.653 49.3498 322.681 48.6252C323.013 39.95 322.02 32.9449 318.123 25.0324C314.509 17.6944 307.899 10.2738 299.884 7.80019C293.732 5.90159 285.062 6.2182 279.3 9.39116C269.306 14.8949 265.331 25.3397 262.131 35.4424C257.407 33.0979 250.689 31.2942 244.536 29.6422C241.645 28.8661 238.879 28.1234 236.503 27.3739C239.476 26.1507 246.718 23.1246 247.736 20.1021C245.954 13.3352 217.672 18.0695 212.155 19.3755C215.145 17.3015 226.19 6.79953 225.529 3.35225C225.219 3.03467 224.737 2.61494 224.301 2.61274C210.031 2.54096 184.89 8.60892 173.128 15.5011C173.455 14.9263 174.278 13.6069 175.282 11.997C177.746 8.04699 181.301 2.34778 181.293 1.6047C178.811 -2.08792 160.079 8.9671 157.131 11.0563ZM233.227 30.5748C235.097 30.0216 238.633 30.7794 240.464 31.3944C238.972 31.737 238.397 31.6725 237.135 31.5307C236.951 31.51 236.752 31.4876 236.533 31.4646C236.349 31.4318 236.15 31.4005 235.943 31.3679C234.998 31.2194 233.88 31.0437 233.227 30.5748Z" fill="#000001"/>
<path d="M236.533 31.4646C235.511 31.2824 234.024 31.1466 233.227 30.5748C235.097 30.0216 238.633 30.7794 240.464 31.3944C238.754 31.7871 238.249 31.6449 236.533 31.4646Z" fill="#774E48" fill-opacity="0.980392"/>
<path d="M163.775 26.5499C166.439 23.0241 169.618 20.1298 173.534 18.0283C184.699 12.0371 197.137 8.74162 209.586 6.73525C212.59 6.25112 217.087 5.49571 220.039 5.68804L220.173 6.08614L219.301 6.97816C215.068 11.4096 196.06 24.4142 195.12 28.4196L195.705 28.5392C197.096 29.1261 205.894 25.82 207.962 25.1771C219.36 21.6343 229.318 21.5262 241.041 20.9084C238.875 22.366 236.381 23.5605 234.001 24.6504C226.54 28.0677 219.219 31.739 211.717 35.064C219.163 33.3235 223.41 32.3472 231.126 32.2668C232.703 31.351 234.506 32.4952 236.533 31.4646C238.249 31.6449 238.754 31.7871 240.464 31.3944L241.371 31.3724C241.613 31.8429 241.716 32.2532 242.13 32.5541C268.267 37.3734 285.618 49.3149 300.61 71.2649C310.746 86.1066 315.778 105.433 332.15 114.706C339.387 118.804 344.752 120.011 353.013 119.548C345.668 124.12 342.855 122.843 334.707 121.95C341.334 126.164 347.922 129.484 353.744 134.784C349.097 134.68 341.089 134.339 336.743 134.9C325.145 135.943 314.816 136.723 303.607 140.336L300.956 141.625C297.145 138.262 295.321 137.551 290.434 135.901C289.583 132.857 288.527 130.82 285.416 129.329C275.527 124.594 261.836 125.15 251.545 128.007C245.343 129.728 225.879 137.982 228.942 146.518C229.052 146.823 229.167 147.125 229.285 147.427C227.813 148.798 227.383 149.151 225.673 150.272C221.761 148.748 217.404 146.768 213.512 145.086C212.338 145.796 212.168 145.685 210.72 145.522L210.033 145.868L209.806 146.997L209.084 147.322C205.776 149.466 192.112 157.317 191.138 160.399C183.524 160.436 177.17 160.787 169.577 161.408C151.843 163.147 134.28 166.33 117.064 170.926C96.0229 176.571 77.9939 182.636 58.1979 192.055C58.4369 188.094 64.5519 171.993 66.4339 167.761C67.5079 165.346 70.2029 160.208 70.8579 157.849L70.3899 157.558L68.7689 158.342C67.1149 156.684 68.6309 155.588 67.0939 153.837C68.7369 151.963 70.3379 149.963 71.9219 148.032C69.4739 148.805 66.8729 149.526 64.3989 150.256L64.1259 148.756C63.5509 147.418 63.8869 148.148 62.3029 147.094L63.3419 146.539L63.2709 146.116C72.3859 142.176 74.2589 138.719 78.6149 129.725C79.5919 127.707 81.7639 123.277 81.0969 121.505C82.0529 118.516 87.7259 114.166 90.1639 112.072C87.0839 112.769 82.8869 113.384 80.0419 114.189C63.1819 115.356 46.6779 108.284 40.4959 91.6372C38.7109 86.828 38.1429 74.8342 39.4759 69.9823C42.0419 58.5864 46.2369 51.0899 55.4829 43.6381C61.6009 38.7073 69.5169 34.6654 77.5709 35.8438C90.7859 37.7771 98.0419 43.2344 105.987 53.2943C106.587 53.944 107.363 54.7195 107.848 55.437C108.894 57.1055 112.392 62.8427 113.906 63.3997L114.379 62.7331C117.255 61.1353 122.543 56.5819 125.654 54.3946C132.474 49.5994 138.038 46.8419 145.496 43.2059C150.525 26.141 157.388 17.2957 172.902 8.04101L171.627 9.74314C170.374 10.3293 170.44 10.2917 169.644 11.4351C163.911 18.181 161.083 25.6361 158.994 34.1055C160.425 31.8025 162.218 28.6273 163.775 26.5499Z" fill="#C17E4F"/>
<path d="M117.064 170.926C120.733 154.831 146.824 147.832 160.334 153.711C163.232 154.972 168.536 157.8 169.838 160.779L169.577 161.408C151.843 163.147 134.28 166.33 117.064 170.926Z" fill="#FB918E"/>
<path d="M39.4761 69.9823C42.0421 58.5864 46.2371 51.0899 55.4831 43.6381C61.6011 38.7073 69.5171 34.6654 77.5711 35.8438C90.7861 37.7771 98.0421 43.2343 105.987 53.2942L105.229 53.6156C102.58 52.1752 99.7421 49.4194 96.9301 47.8944C75.0031 36.0054 52.9981 44.4748 42.3871 66.4424C41.9801 67.2842 40.5411 69.9496 39.8331 70.3607L39.4761 69.9823Z" fill="#FBD5AB"/>
<path d="M163.775 26.5499C166.439 23.0241 169.618 20.1298 173.534 18.0283C184.699 12.0371 197.137 8.74162 209.586 6.73525C212.59 6.25112 217.087 5.49571 220.039 5.68804L220.173 6.08614L219.301 6.97816C216.672 7.30714 211.557 9.17981 208.802 10.0004C193.935 14.4291 182.273 19.3695 169.855 28.8191C166.528 31.3512 159.553 37.9238 157.404 39.2718C159.545 34.1626 164.279 31.3095 163.775 26.5499Z" fill="#FBD5AB"/>
<path d="M303.607 140.336C303.03 139.979 303.281 140.218 303.012 139.444C306.027 129.45 319.445 124.728 328.523 128.662C330.715 129.612 335.516 132.469 336.918 134.332L336.743 134.9C325.145 135.943 314.816 136.723 303.607 140.336Z" fill="#FB918E"/>
<path d="M209.084 147.322C207.991 146.107 206.396 145.063 206.96 143.351C208.831 142.651 211.621 144.261 213.512 145.086C212.338 145.796 212.168 145.685 210.72 145.522L210.033 145.868L209.806 146.997L209.084 147.322Z" fill="#EBDACC"/>
<path d="M240.464 31.3944L241.371 31.3724C241.613 31.8429 241.716 32.2531 242.13 32.554C238.463 32.4297 234.795 32.3339 231.126 32.2668C232.703 31.351 234.506 32.4952 236.533 31.4646C238.249 31.6449 238.754 31.7871 240.464 31.3944Z" fill="#1A0C0D"/>
<path d="M163.803 87.8877C175.723 87.2507 185.041 94.6773 189.299 105.859C194.169 118.65 195.93 138.428 179.764 144.045C171.443 146.936 154.708 146.063 146.657 142.093C146.321 141.861 145.987 141.624 145.658 141.383C139.478 136.857 137.735 128.93 136.672 121.893C134.687 121.372 129.559 119.644 129.797 117.089C131.628 116.607 134.658 118.561 136.688 117.485L136.918 116.71C136.217 113.622 130.28 110.738 130.872 107.779L131.558 107.472C133.1 107.728 136.471 110.011 138.039 110.939C138.627 109.407 139.138 107.677 139.642 106.103C138.888 104.057 137.831 101.33 138.161 99.1462L138.512 98.9976C139.99 99.7332 140.945 101.809 141.821 103.304C148.179 94.1309 152.504 89.9607 163.803 87.8877Z" fill="#000001"/>
<path d="M141.199 116.656C144.131 96.1821 167.955 85.432 183.83 101.45L181.659 101.099C182.577 101.833 183.526 102.424 183.974 103.485C183.995 104.273 184.075 104.444 183.8 105.164C178.928 102.203 175.34 101.565 169.712 102.899C168.074 103.287 166.524 103.801 166.366 105.685C169.679 106.151 172.52 107.133 171.938 111.306C171.648 113.314 170.522 115.105 168.839 116.238C165.982 118.149 163.59 116.841 161.432 114.578C159.199 125.036 160.053 135.682 170.34 141.461C171.818 142.29 173.543 142.943 175.1 143.633C172.049 144.047 169.566 144.305 166.486 144.212C147.45 143.637 136.46 137.403 141.199 116.656Z" fill="#FCFBF4"/>
<path d="M141.199 116.656C144.131 96.1821 167.955 85.432 183.83 101.45L181.659 101.099C177.268 97.9337 168.719 96.1736 163.363 97.0656C152.078 98.9446 147.254 108.452 141.199 116.656Z" fill="#ECBCA4"/>
<path d="M175.301 129.553C176.005 129.124 176.885 129.107 177.604 129.511C178.323 129.914 178.767 130.675 178.767 131.499C178.766 132.324 178.32 133.083 177.6 133.485C176.517 134.09 175.149 133.717 174.523 132.646C173.897 131.576 174.243 130.2 175.301 129.553Z" fill="#FCFBF4"/>
<path d="M181.659 101.099L183.83 101.45C186.902 105.306 187.364 106.246 189.069 110.732C187.358 108.836 185.671 106.899 183.8 105.164C184.075 104.444 183.995 104.273 183.974 103.485C183.526 102.424 182.577 101.833 181.659 101.099Z" fill="#EBDACC"/>
<path d="M279.368 74.4565C280.386 74.3555 281.41 74.3336 282.432 74.391C290.155 74.7667 295.439 79.2105 300.387 84.7146C301 83.1763 301.155 82.2095 302.534 81.4915L303.076 81.8067C303.749 84.3744 303.1 84.985 301.856 87.4356C302.576 88.9352 303.184 89.8469 304.078 91.2206C304.442 90.8688 304.807 90.519 305.175 90.1711C306.173 89.2258 307.107 88.0902 308.418 88.1269C309.836 91.4126 305.902 92.8912 305.308 94.9736C306.02 98.5651 307.441 95.748 309.712 97.4394C310.083 98.7195 310.097 98.113 309.782 99.3229C307.445 101.471 306.399 98.1183 306.506 103.323C306.635 109.675 306.138 114.914 303.065 120.549C297.484 128.363 283.846 127.776 277.02 124.039C265.882 117.94 264.068 92.2173 269.558 82.0154C271.929 77.6101 275.18 75.7173 279.368 74.4565Z" fill="#000001"/>
<path d="M268.842 91.6071C269.749 82.2361 279.704 77.5822 287.981 80.9411C291.135 82.2208 292.788 83.2636 295.379 85.4798C305.476 95.0572 309.895 110.994 300.067 122.35C303.306 113.195 303.664 106.828 299.505 97.7452C296.513 91.2101 289.86 85.0653 282.516 89.8039C281.238 90.6291 280.992 90.7416 280.222 92.0396L280.166 92.867C281.878 94.2613 284.028 95.3825 284.018 97.8583C283.998 102.529 281.34 102.874 277.961 101.351C277.842 112.561 279.883 119.71 290.062 125.403C285.21 125.235 278.2 124.631 274.861 120.657C268.404 112.97 266.788 101.111 268.842 91.6071Z" fill="#FCFBF4"/>
<path d="M268.842 91.6071C269.749 82.2361 279.704 77.5822 287.981 80.9411C291.135 82.2208 292.788 83.2636 295.379 85.4798C292.988 85.2887 291.815 84.0954 289.778 83.3105C284.989 81.4654 279.472 81.3339 275.259 84.6502C271.909 86.9819 270.845 89.8625 268.842 91.6071Z" fill="#ECBCA4"/>
<path d="M289.722 111.426C290.195 111.026 290.848 110.914 291.427 111.135C292.006 111.355 292.42 111.872 292.508 112.485C292.596 113.098 292.344 113.711 291.85 114.085C291.114 114.641 290.069 114.511 289.493 113.791C288.917 113.07 289.018 112.022 289.722 111.426Z" fill="#FCFBF4"/>
<path d="M84.978 103.056C78.855 105.237 75.495 104.607 69.503 101.793C63.183 98.7715 58.32 93.367 55.98 86.7647C49.321 67.9247 61.296 47.2922 82.145 58.3691C93.831 64.5782 94.91 73.3391 103.237 80.2319C93.726 82.2821 86.128 82.0109 76.531 82.8364C84.561 87.9249 87.117 89.6627 96.013 93.1518C90.783 95.4094 85.951 97.584 80.309 98.6795C86.984 101.609 87.903 101.786 95.264 102.279C93.119 103.567 91.149 104.752 89.085 106.164L88.317 105.126C87.486 103.934 86.435 103.699 84.978 103.056Z" fill="#000001"/>
<path d="M57.2481 73.1552C67.2661 72.4626 64.5871 73.4202 73.0581 75.3071C76.3921 77.2152 79.7961 78.9978 83.2641 80.6511C79.2991 81.2079 76.3751 81.6417 72.4821 82.5602C75.4231 85.4523 77.9971 87.6662 81.4431 89.9487C80.2251 89.8874 76.0371 89.4478 75.2461 89.8195L75.1161 90.5519C78.2071 92.4555 84.8711 92.9799 88.8971 94.3683C84.9901 96.8066 83.0691 97.2681 78.4771 97.9142C80.4161 100.194 81.8241 100.541 84.5721 101.639C74.1481 104.566 62.0131 96.863 58.6431 86.9162C56.8391 81.5904 56.8051 78.6993 57.2481 73.1552Z" fill="#FB918E"/>
<path d="M75.1162 90.5519C78.2072 92.4555 84.8712 92.9799 88.8972 94.3683C84.9902 96.8066 83.0692 97.2681 78.4772 97.9142C76.5142 95.3589 75.3482 93.7973 75.1162 90.5519Z" fill="url(#paint0_linear_67_17)"/>
<path d="M57.248 73.1553C58.426 65.821 62.0091 57.5563 71.0721 59.0589C78.9161 60.3594 87.4211 73.2505 91.5901 79.5622C87.3251 78.6455 75.5571 73.9639 73.0581 75.3071C64.5871 73.4202 67.266 72.4627 57.248 73.1553Z" fill="#D45B5B"/>
<path d="M155.951 65.4797C160.106 65.1489 168.248 66.4356 169.995 70.7529C169.913 70.9519 169.832 71.151 169.75 71.35C167.443 71.6108 162.352 71.3168 160.197 71.3615C154.281 71.4842 150.571 74.1974 146.005 77.4077C142.234 80.2299 141.371 81.9054 138.468 85.5275C139.237 81.9946 139.72 79.913 141.631 76.8228C146.041 69.6896 148.086 67.6048 155.951 65.4797Z" fill="#000001"/>
<path d="M271.036 52.4308C271.514 52.4596 271.991 52.502 272.467 52.5577C278.607 53.3099 284.432 60.0246 287.937 64.609C285.526 63.7095 282.975 62.4504 280.624 61.3538C277.067 59.8549 273.817 59.214 269.948 59.4054C267.563 59.5234 265.145 61.174 263.338 60.4331L263.072 59.7339C263.512 55.2973 266.992 53.1424 271.036 52.4308Z" fill="#000001"/>
<path d="M254.566 116.482C258.187 116.223 264.2 116.591 267.373 118.467L267.297 118.909C260.979 118.096 257.295 117.714 250.807 118.532C244.885 119.422 243.138 120.608 237.546 122.604C243.375 118.352 247.396 117.324 254.566 116.482Z" fill="#000001"/>
<path d="M88.317 105.126L89.0851 106.164C87.8231 106.833 87.6951 107.175 86.4971 107.112C86.8661 105.973 87.181 106.043 88.317 105.126Z" fill="#000001"/>
<path d="M213.512 145.086C217.404 146.768 221.761 148.748 225.673 150.272C227.383 149.151 227.813 148.798 229.285 147.427L230.151 149.025C240.121 160.449 249.904 160.611 263.33 164.593C263.659 164.691 264.192 167.042 264.276 167.446C264.837 169.553 264.697 174.153 264.124 176.25C259.413 193.288 239.314 198.231 223.958 193.902C213.556 190.969 206.496 185.95 201.04 176.618C204.014 175.592 206.454 175.07 208.55 172.65L207.79 171.983C206.479 172.244 202.218 173.778 200.741 174.273L200.22 174.003C199.418 168.123 203.014 171.564 206.446 169.342L206.523 168.716L205.909 168.047C204.593 167.789 201.62 168.278 200.126 168.46L201.732 162.551C203.606 162.564 206.139 162.869 207.542 161.891L207.519 161.241C206.696 160.524 204.002 160.511 202.612 160.287L202.807 159.045L202.478 158.733C201.851 159.288 201.464 159.691 200.892 160.291C198.796 160.637 193.494 160.431 191.138 160.399C192.112 157.317 205.776 149.466 209.084 147.322L209.806 146.997L210.033 145.868L210.72 145.522C212.168 145.685 212.338 145.796 213.512 145.086Z" fill="#FBD5AB"/>
<path d="M230.151 149.025C240.121 160.449 249.904 160.611 263.33 164.593C263.659 164.691 264.192 167.042 264.276 167.446C256.488 165.569 247.994 163.649 240.61 160.504C236.743 158.856 230.022 153.665 230.151 149.025Z" fill="#EAA57A"/>
<path d="M139.09 43.336C139.639 41.2062 140.28 39.101 141.011 37.0264C146.274 21.9321 158.585 12.6668 172.492 5.93408L173.857 7.14374L172.902 8.04095C157.388 17.2957 150.525 26.141 145.496 43.2059C138.038 46.8419 132.474 49.5993 125.654 54.3945C122.543 56.5818 117.255 61.1352 114.379 62.733C114.292 62.4953 114.207 62.2569 114.124 62.0176C113.895 61.3543 113.465 60.2047 113.874 59.6753C118.851 53.2437 132.021 45.6366 139.09 43.336Z" fill="#FBD5AB"/>
<path d="M68.7688 158.342L70.3898 157.558L70.8578 157.849C70.2028 160.208 67.5078 165.346 66.4338 167.761C64.5518 171.993 58.4368 188.094 58.1978 192.055L53.0698 194.599C53.1848 193.113 53.3398 191.629 53.5348 190.151C54.6938 181.512 60.8308 163.882 67.8698 158.525L68.7688 158.342Z" fill="#FBD5AB"/>
<path d="M81.097 121.505C81.764 123.277 79.592 127.707 78.615 129.725C74.259 138.719 72.386 142.176 63.271 146.116C61.387 146.666 53.87 149.037 52.144 148.1L51.73 147.586C65.886 142.301 73.114 133.963 81.097 121.505Z" fill="#FBD5AB"/>
<path d="M64.3989 150.256C66.8729 149.526 69.4739 148.805 71.9219 148.032C70.3379 149.963 68.7369 151.963 67.0939 153.837C68.6309 155.588 67.1149 156.684 68.7689 158.342L67.8699 158.525L67.5799 157.898C63.1479 158.531 56.7129 161.827 50.7789 161.365C49.4859 161.63 49.3879 161.636 48.0659 161.623C49.2959 160.243 62.6569 150.964 64.3989 150.256Z" fill="#FBD5AB"/>
<path d="M67.0938 153.837C68.6308 155.588 67.1148 156.684 68.7688 158.342L67.8698 158.525L67.5798 157.898C63.1478 158.531 56.7128 161.827 50.7788 161.365C51.6728 160.86 54.2788 160.245 55.3918 159.915C60.3608 158.446 63.0878 156.966 67.0938 153.837Z" fill="#A2582E"/>
<path d="M195.705 28.5391C203.823 22.9728 216.546 20.506 226.359 19.7097C229.015 19.4942 239.989 19.0574 241.531 20.3758L241.041 20.9084C229.318 21.5262 219.36 21.6343 207.962 25.1771C205.894 25.82 197.096 29.126 195.705 28.5391Z" fill="#FBD5AB"/>
<path d="M51.7301 147.586L52.1441 148.1C53.8701 149.037 61.3871 146.666 63.2711 146.116L63.3421 146.539L62.3031 147.094C63.8871 148.148 63.5511 147.418 64.1261 148.756C62.5481 148.08 61.3481 148.527 59.6841 148.884C54.9451 149.902 51.6961 149.748 46.9561 148.959C48.5181 148.564 50.1751 148.042 51.7301 147.586Z" fill="#EAA57A"/>
<path d="M169.644 11.4351C170.44 10.2917 170.374 10.3293 171.627 9.74304C170.602 12.1362 168.112 18.0199 166.215 19.5279C166.578 18.3295 166.931 17.2912 167.429 16.1272C168.086 14.5913 170.067 13.0025 169.644 11.4351Z" fill="#A2582E"/>
<path d="M172.492 5.93415C174.358 4.7999 175.552 4.25274 177.553 3.35583L173.857 7.14381L172.492 5.93415Z" fill="#D9B68A"/>
<path d="M308.28 154.338C315.999 154.714 322.002 155.219 329.543 156.692C335.479 157.554 349.84 161.519 355.067 164.24C359.043 170.379 361.099 177.618 362.515 184.752C358.415 181.549 354.368 178.281 349.925 175.572C352.322 186.732 353.4 197.077 350.095 208.283C349.648 205.754 348.944 199.963 346.999 198.476L345.341 197.992C343.618 203.941 339.128 212.635 335.035 217.146C332.566 220.008 330.927 221.578 327.78 223.719L323.087 222.45C320.574 225.084 318.936 227.903 316.619 230.49C313.89 233.538 309.877 236.896 306.725 239.636C308.166 236.33 310.219 232.55 311.457 229.373C305.215 235.655 297.648 243.833 289.154 246.782C290.899 243.756 293.1 241.45 290.905 238.173C289.661 239.205 288.336 242.086 286.92 243.628C283.344 247.521 278.469 251.704 273.922 254.365C275.5 250.97 276.619 248.679 277.564 245.025C274.626 248.98 266.201 258.172 260.973 257.145L260.881 256.757L262.559 255.362C260.982 254.854 257.292 258.003 255.349 258.14C249.907 258.522 249.633 257.76 244.373 259.979C240.325 258.218 238.727 257.106 235.035 254.819C236.358 256.498 238.03 258.541 239.169 260.329C230.691 259.951 227.06 258.244 219.232 255.591L217.993 255.405C219.27 257.761 225.357 259.429 229.263 265.087C226.308 264.177 220.774 261.658 218.762 261.218L218.379 261.502L218.369 262.435C218.393 262.43 191.816 254.941 186.446 255.363L186.703 255.665C187.062 256.094 187.373 256.497 187.711 256.94L187.464 257.385C186.71 257.457 186.141 257.491 185.384 257.51L174.577 256.089C174.418 255.833 173.787 254.96 173.589 254.93C170.226 254.417 166.453 253.895 163.13 253.377C158.337 252.63 153.907 251.472 149.126 250.5C143.04 249.263 135.458 248.728 129.787 246.49C126.67 245.261 123.961 241.844 121.999 239.353C122.78 241.927 124.106 245.109 125.091 247.666C114.887 243.334 114.318 240.041 107.388 232.384C108.051 235.011 110.361 239.98 111.487 242.783C101.868 239.723 96.3069 235.468 90.7539 227.256C92.3399 225.788 93.9389 224.335 95.5519 222.896C116.827 204.288 148.351 187.487 175.108 178.202C180.225 175.889 191.713 172.348 197.217 171.095L197.77 175.313C197.222 175.541 196.678 175.781 196.14 176.031C192.925 177.514 181.087 182.843 180.007 185.779L180.326 186.17C182.171 186.171 195.073 179.194 198.295 177.725C203.104 190.353 215.228 195.264 227.311 198.283C228.627 199.733 230.595 202.664 231.719 204.332C238.18 214.15 250.28 224.966 262.762 218.829C271.362 214.601 270.045 200.443 273.229 191.807L273.413 191.315C281.719 192.698 288.01 193.216 295.492 188.224C303.032 183.192 307.328 174.168 308.94 165.452C308.963 164.408 308.889 164.29 309.363 163.34C311.449 163.287 313.606 166.804 315.965 167.935L316.165 167.516C315.75 166.006 314.705 165.199 313.578 164.047C311.892 162.696 311.226 162.317 309.365 161.277C309.13 159.138 308.629 156.499 308.28 154.338Z" fill="#FBD5AB"/>
<path d="M95.5519 222.896C116.827 204.288 148.351 187.487 175.108 178.202L174.922 178.767C174.245 180.777 172.461 183.91 171.939 185.776C168.948 196.456 167.695 208.502 172.578 218.797C175.894 225.787 180.827 229.358 186.626 233.845C188.302 234.571 190.1 235.254 191.163 236.704C190.899 237.526 191.059 237.14 189.932 237.761L192.594 239.17C194.207 243.435 197.075 244.615 198.154 246.939C202.837 248.601 208.965 251.596 213.788 253.635C214.748 254.942 215.34 254.636 216.934 254.594L217.993 255.405C219.27 257.761 225.357 259.429 229.263 265.087C226.308 264.177 220.774 261.658 218.762 261.218L218.379 261.502L218.369 262.435C218.393 262.43 191.816 254.941 186.446 255.363L186.703 255.665C187.062 256.094 187.373 256.497 187.711 256.94L187.464 257.385C186.71 257.457 186.141 257.491 185.384 257.51L174.577 256.089C174.418 255.833 173.787 254.96 173.589 254.93C170.226 254.417 166.453 253.895 163.13 253.377C158.337 252.63 153.907 251.472 149.126 250.5C143.04 249.263 135.458 248.728 129.787 246.49C126.67 245.261 123.961 241.844 121.999 239.353C122.78 241.927 124.106 245.109 125.091 247.666C114.887 243.334 114.318 240.041 107.388 232.384C108.051 235.011 110.361 239.98 111.487 242.783C101.868 239.723 96.3069 235.468 90.7539 227.256C92.3399 225.788 93.9389 224.335 95.5519 222.896Z" fill="#C17E4F"/>
<path d="M95.5519 222.896C115.169 235.588 138.64 241.529 161.495 245.644C166.552 246.554 173.066 246.597 178.344 247.347C184.553 248.23 190.566 249.578 196.778 250.057C195.243 248.738 193.714 247.375 192.088 246.175C193.713 246.398 196.619 246.879 198.154 246.939C202.837 248.601 208.965 251.596 213.788 253.635C214.748 254.942 215.34 254.636 216.934 254.594L217.993 255.405C219.27 257.761 225.357 259.429 229.263 265.087C226.308 264.177 220.774 261.658 218.762 261.218L218.379 261.502L218.369 262.435C218.393 262.43 191.816 254.941 186.446 255.363L186.703 255.665C187.062 256.094 187.373 256.497 187.711 256.94L187.464 257.385C186.71 257.457 186.141 257.491 185.384 257.51L174.577 256.089C174.418 255.833 173.787 254.96 173.589 254.93C170.226 254.417 166.453 253.895 163.13 253.377C158.337 252.63 153.907 251.472 149.126 250.5C143.04 249.263 135.458 248.728 129.787 246.49C126.67 245.261 123.961 241.844 121.999 239.353C122.78 241.927 124.106 245.109 125.091 247.666C114.887 243.334 114.318 240.041 107.388 232.384C108.051 235.011 110.361 239.98 111.487 242.783C101.868 239.723 96.3069 235.468 90.7539 227.256C92.3399 225.788 93.9389 224.335 95.5519 222.896Z" fill="#A2582E"/>
<path d="M186.626 233.845C188.302 234.571 190.1 235.254 191.163 236.704C190.899 237.526 191.059 237.14 189.932 237.761C188.664 237.283 184.497 234.957 183.998 233.822C184.995 233.869 185.63 233.878 186.626 233.845Z" fill="#ECBCA4"/>
<path d="M308.28 154.338C315.999 154.714 322.002 155.219 329.543 156.692C335.479 157.554 349.84 161.519 355.067 164.24C359.043 170.379 361.099 177.618 362.515 184.752C358.415 181.549 354.368 178.281 349.925 175.572C352.322 186.732 353.4 197.077 350.095 208.283C349.648 205.754 348.944 199.963 346.999 198.476L345.341 197.992C343.618 203.941 339.128 212.635 335.035 217.146C332.566 220.008 330.927 221.578 327.78 223.719L323.087 222.45C320.574 225.084 318.936 227.903 316.619 230.49C313.89 233.538 309.877 236.896 306.725 239.636C308.166 236.33 310.219 232.55 311.457 229.373C305.215 235.655 297.648 243.833 289.154 246.782C290.899 243.756 293.1 241.45 290.905 238.173C291.986 237.57 294.77 235.266 296.483 234.185C299.215 232.886 301.215 227.321 302.184 224.589C305.33 223.053 308.105 218.854 310.333 216.238C310.505 216.035 311.75 215.921 312.022 215.901C317.19 210.105 319.05 203.901 320.334 196.524C321.153 197.541 321.098 197.793 321.307 199.143L321.59 199.713C322.096 199.4 322.266 198.762 322.355 198.117C323.717 188.26 320.015 178.835 314.37 170.907C313.251 169.336 310.729 165.785 308.94 165.452C308.963 164.408 308.889 164.29 309.363 163.34C311.449 163.287 313.606 166.804 315.965 167.935L316.165 167.516C315.75 166.006 314.705 165.199 313.578 164.047C311.892 162.696 311.226 162.317 309.365 161.277C309.13 159.138 308.629 156.499 308.28 154.338Z" fill="#C17E4F"/>
<path d="M336.291 208.597C336.122 210.899 332.578 215.596 335.035 217.146C332.566 220.008 330.927 221.578 327.78 223.719L323.087 222.45C320.574 225.084 318.936 227.903 316.619 230.49C313.89 233.538 309.877 236.896 306.725 239.636C308.166 236.33 310.219 232.55 311.457 229.373C305.215 235.655 297.648 243.833 289.154 246.782C290.899 243.756 293.1 241.45 290.905 238.173C291.986 237.57 294.77 235.266 296.483 234.185C297.002 234.622 297.027 235.149 297.845 235.754C301.974 234.659 321.248 220.746 326.308 217.56C327.768 216.641 334.754 210.064 336.291 208.597Z" fill="#A2582E"/>
<path d="M308.28 154.338C315.999 154.714 322.002 155.219 329.543 156.692C329.393 156.814 314.216 163.838 313.578 164.047C311.892 162.696 311.226 162.317 309.365 161.277C309.13 159.138 308.629 156.499 308.28 154.338Z" fill="#FB918E"/>
<path d="M336.291 208.597C338.572 206.047 340.563 204.236 342.19 201.098C342.969 199.596 343.763 198.027 345.22 197.157L345.341 197.992C343.618 203.941 339.128 212.635 335.035 217.146C332.578 215.596 336.122 210.899 336.291 208.597Z" fill="#B57044"/>
<path d="M345.22 197.157C345.531 195.069 345.742 192.919 346.494 190.958C346.597 192.401 346.714 197.599 346.999 198.476L345.341 197.992L345.22 197.157Z" fill="#572310"/>
<path d="M192.594 239.17C198.341 240.839 204.24 241.929 210.204 242.422C211.741 242.559 215.029 242.975 216.219 241.987C216.518 241.175 216.795 239.719 217.794 239.914C220.943 240.455 223.759 241.589 226.92 242.241C242.9 245.541 261.12 243.615 275.962 236.812C278.363 235.711 281.623 231.813 283.847 231.073C290.138 228.978 296.028 227.087 302.184 224.589C301.215 227.321 299.215 232.886 296.483 234.185C294.77 235.266 291.986 237.57 290.905 238.173C289.661 239.205 288.336 242.086 286.92 243.628C283.344 247.521 278.469 251.704 273.922 254.365C275.5 250.97 276.619 248.679 277.564 245.025C274.626 248.98 266.201 258.172 260.973 257.145L260.881 256.757L262.559 255.362C260.982 254.854 257.292 258.003 255.349 258.14C249.907 258.522 249.633 257.76 244.373 259.979C240.325 258.218 238.727 257.106 235.035 254.819C236.358 256.498 238.03 258.541 239.169 260.329C230.691 259.951 227.06 258.244 219.232 255.591L217.993 255.405L216.934 254.594C215.34 254.636 214.748 254.942 213.788 253.635C208.965 251.596 202.837 248.601 198.154 246.939C197.075 244.615 194.207 243.435 192.594 239.17Z" fill="#EAA57A"/>
<path d="M211.746 248.662C213.432 250.157 218.008 254.025 219.232 255.591L217.993 255.405L216.934 254.594C215.34 254.636 214.748 254.942 213.788 253.635C214.05 252.229 212.548 250.775 211.746 248.662Z" fill="#B57044"/>
<path d="M225.165 249.238C226.305 248.945 230.359 250.472 231.828 250.931C230.217 251.287 226.131 250.623 225.165 249.238Z" fill="#C17E4F"/>
<path d="M320.334 196.524C320.436 195.698 320.412 195.054 320.91 194.413C321.367 196.073 321.285 197.426 321.307 199.143C321.098 197.793 321.153 197.541 320.334 196.524Z" fill="#EAA57A"/>
<path d="M69.0129 190.126C85.2689 183.103 98.7939 178.712 115.738 173.996C115.887 179.826 116.368 183.874 120.661 188.308C124.112 191.873 129.031 192.613 131.979 194.47C128.784 196.57 125.25 198.477 121.959 200.515C111.129 207.223 102.166 213.332 92.778 221.914C89.05 225.459 86.5229 228.126 83.0849 231.954C78.8269 225.51 76.2579 220.831 74.1779 213.204C73.5769 211 73.607 208.045 72.812 206.463C72.161 208.644 71.8329 210.977 71.1209 213.005C70.5869 217.099 70.1429 220.846 69.8019 224.958C65.4959 218.619 63.3589 211.396 62.5799 203.789C62.3339 201.376 63.4429 195.421 62.6199 194.353C61.4709 194.215 61.0059 194.618 59.9749 195.173L59.4399 194.502C62.5899 192.955 65.7819 191.495 69.0129 190.126Z" fill="#C17E4F"/>
<path d="M72.812 206.463C74.181 205.377 74.482 204.835 75.459 203.413C79.337 211.281 85.084 217.592 92.778 221.914C89.05 225.459 86.523 228.126 83.085 231.954C78.827 225.51 76.258 220.831 74.178 213.204C73.577 211 73.607 208.045 72.812 206.463Z" fill="#A2582E"/>
<path d="M59.4399 194.502C62.5899 192.955 65.7819 191.495 69.0129 190.126C68.7779 195.791 68.3409 201.636 68.3529 207.302C68.3589 209.741 68.4889 212.277 71.1209 213.005C70.5869 217.099 70.1429 220.846 69.8019 224.958C65.4959 218.619 63.3589 211.396 62.5799 203.789C62.3339 201.376 63.4429 195.421 62.6199 194.353C61.4709 194.215 61.0059 194.618 59.9749 195.173L59.4399 194.502Z" fill="#A2582E"/>
<path d="M157.865 254.247C163.776 255.038 168.589 255.604 174.577 256.089L185.384 257.51C187.181 258.138 194.71 259.939 195.224 260.622L195.146 261.997C193.487 268.798 192.205 277.724 192.592 284.785C192.862 287.337 193.221 289.424 193.683 291.955C177.348 290.531 168.328 289.016 152.579 285.543C152.379 284.131 152.289 282.783 152.179 281.364C152.394 272.298 153.7 267.127 156.499 258.759C157.039 257.279 157.436 255.764 157.865 254.247Z" fill="#6B9EBF"/>
<path d="M152.179 281.364C156.634 282.138 189.198 285.926 192.592 284.785C192.862 287.337 193.221 289.424 193.683 291.955C177.348 290.531 168.328 289.016 152.579 285.543C152.379 284.131 152.289 282.783 152.179 281.364Z" fill="#43729D"/>
<path d="M157.865 254.247C163.776 255.038 168.589 255.604 174.577 256.089L185.384 257.51C187.181 258.138 194.71 259.939 195.224 260.622L195.146 261.997L156.499 258.759C157.039 257.279 157.436 255.764 157.865 254.247Z" fill="#43729D"/>
<path d="M290.753 136.752C298.361 142.408 300.593 143.405 304.689 152.177C303.114 152.152 301.852 151.942 300.511 152.669L300.13 153.26C301.417 155.001 303.383 154.46 305.394 154.483C306.91 164.353 305.451 170.66 299.687 179.074C292.874 189.017 279.66 192.147 269.51 185.398C263.804 181.605 265.87 173.804 267.072 168.238L267.517 164.043C269.371 162.628 272.3 161.095 274.373 159.942C282.052 155.672 285.696 152.139 289.223 144.219C289.941 141.467 290.301 139.57 290.753 136.752Z" fill="#FBD5AB"/>
<path d="M267.517 164.043C269.371 162.628 272.3 161.095 274.373 159.942C282.052 155.672 285.696 152.139 289.223 144.219C288.629 153.185 284.086 158.9 276.602 163.455C275.175 162.625 276.785 162.446 275.189 162.613C272.571 164.793 270.285 167.547 267.072 168.238L267.517 164.043Z" fill="#EAA57A"/>
<path d="M267.573 30.2465C272.711 16.0779 282.306 5.56277 298.473 10.2091C306.722 13.4192 311.999 18.3127 315.357 26.5592C322.869 45.0014 322.919 61.9801 305.999 74.417C304.085 71.4743 302.452 68.9856 300.322 66.1774C304.002 63.8778 306.584 61.9081 308.749 58.007C313.626 49.2162 311.789 37.2152 306.684 28.9457C303.164 23.2435 296.738 20.8172 291.035 25.0547C284.241 29.9551 282.191 36.9553 279.722 44.5812C275.328 41.086 270.598 38.6055 265.498 36.3025C266.142 34.3247 266.798 32.1577 267.573 30.2465Z" fill="#C17E4F"/>
<path d="M267.573 30.2465C272.711 16.0779 282.306 5.56277 298.473 10.2091C296.828 11.1628 294.314 11.3285 292.504 11.9202C283.437 14.8828 276.914 20.2366 271.788 28.2207C270.965 29.5037 269.436 32.5417 267.893 32.7688C267.28 31.7112 267.52 31.7126 267.573 30.2465Z" fill="#FBD5AB"/>
<path d="M52.139 245.572C47.077 235.02 53.685 224.494 64.681 222.084C66.136 224.854 67.064 225.926 69.165 228.179C70.15 229.16 71.308 230.529 72.533 231.023C73.808 230.411 73.678 228.791 73.769 227.478C73.64 225.55 73.676 224.2 73.735 222.276C75.95 226.854 78.246 230.051 81.061 234.221C80.697 235.204 80.77 234.92 79.801 235.67C76.231 238.906 73.109 241.729 70.792 246.064L71.384 246.553C75.117 241.413 77.818 239.684 82.185 235.386C85.202 239.427 89.538 244.678 94 247.205C95.4 247.189 95.016 247.007 96.113 247.623C91.937 253.607 90.081 256.195 89.219 263.725C89.533 265.432 89.82 267.143 90.081 268.859C85.697 267.061 81.35 265.174 77.041 263.201C76.315 260.647 74.76 257.467 73.735 254.842C72.891 253.425 72.474 252.185 71.643 250.705L71.172 250.772L70.627 252.047C71.901 253.885 74.264 260.002 75.833 262.71C70.391 260.378 59.618 255.757 55.633 251.606C54.103 249.772 53.201 247.708 52.139 245.572Z" fill="#6B9EBF"/>
<path d="M52.139 245.572C47.077 235.02 53.685 224.494 64.681 222.084C66.136 224.854 67.064 225.926 69.165 228.179C62.623 230.784 55.887 235.929 56.193 243.799C55.059 246.249 54.719 245.233 52.139 245.572Z" fill="#A4D0D4"/>
<path d="M52.1392 245.572C54.7192 245.233 55.0591 246.249 56.1931 243.799C62.0581 245.334 68.6212 251.877 70.6272 252.047C71.9012 253.885 74.2642 260.002 75.8332 262.71C70.3912 260.378 59.6181 255.757 55.6331 251.606C54.1031 249.772 53.2012 247.708 52.1392 245.572Z" fill="#43729D"/>
<path d="M52.1392 245.572C54.7192 245.233 55.0591 246.249 56.1931 243.799C55.9591 245.662 55.8791 250.764 55.6331 251.606C54.1031 249.772 53.2012 247.708 52.1392 245.572Z" fill="#6B9EBF"/>
<path d="M73.7349 254.842L89.2189 263.725C89.5329 265.432 89.8199 267.143 90.0809 268.859C85.6969 267.061 81.3499 265.174 77.0409 263.201C76.3149 260.647 74.7599 257.467 73.7349 254.842Z" fill="#43729D"/>
<path d="M73.7692 227.478C73.6402 225.55 73.6761 224.2 73.7351 222.276C75.9501 226.854 78.2461 230.051 81.0611 234.221C80.6971 235.204 80.7701 234.92 79.8011 235.67C77.1061 232.871 74.8252 228.453 73.7692 227.478Z" fill="#43729D"/>
<path d="M70.7922 246.064L71.3842 246.553C70.8302 247.68 70.6002 248.352 69.6582 248.84C69.6542 247.641 70.1382 247.22 70.7922 246.064Z" fill="#292B42"/>
<path d="M196.081 262.416L196.79 260.463C199.051 259.742 207.471 261.824 209.79 262.634L210.072 262.688L210.281 261.789C212.579 260.912 228.116 266.247 231.171 267.453C231.581 268.257 231.727 268.548 232.036 269.424C233.079 273.397 234.203 277.73 234.17 281.861C234.6 285.582 234.483 288.42 234.102 292.134C219.55 292.948 209.63 293.319 194.96 291.925C193.834 287.332 193.37 281.069 194.185 276.418C194.226 272.723 195.442 266.086 196.081 262.416Z" fill="#6B9EBF"/>
<path d="M194.185 276.418C194.269 279.273 194.062 282.048 194.141 284.779C206.218 284.442 220.836 286.731 234.066 286.97C234.072 285.448 234.016 283.326 234.17 281.861C234.6 285.582 234.483 288.42 234.102 292.134C219.55 292.948 209.63 293.319 194.96 291.925C193.834 287.332 193.37 281.069 194.185 276.418Z" fill="#43729D"/>
<path d="M210.072 262.688L210.281 261.789C212.579 260.912 228.116 266.247 231.171 267.453C231.581 268.257 231.727 268.548 232.036 269.424C224.666 268.827 221.981 267.179 215.15 264.374C214.049 263.922 211.469 263.201 210.072 262.688Z" fill="#43729D"/>
<path d="M196.081 262.416L196.79 260.463C199.051 259.742 207.471 261.824 209.79 262.634C208.654 262.537 207.182 262.893 205.668 262.859C202.43 262.787 199.311 262.607 196.081 262.416Z" fill="#43729D"/>
<path d="M229.571 261.389C244.139 263.194 247.831 262.208 261.547 259.269C264.262 260.405 265.184 261.19 267.328 263.049C270.878 267.046 272.034 270.449 272.064 275.747C271.973 278.671 271.838 281.267 271.095 284.118C262.63 287.15 244.507 290.913 235.435 291.995C235.546 289.358 235.692 286.739 235.613 284.099C235.466 278.82 234.716 274.57 233.201 269.52C232.377 266.351 231.2 264.198 229.571 261.389Z" fill="#6B9EBF"/>
<path d="M272.064 275.747C271.973 278.671 271.838 281.267 271.095 284.118C262.63 287.15 244.507 290.913 235.435 291.995C235.546 289.358 235.692 286.739 235.613 284.099C235.937 284.578 235.98 285.66 236.07 286.321C240.251 288.179 263.544 280.56 267.876 277.55C268.92 276.824 271.173 276.259 272.064 275.747Z" fill="#43729D"/>
<path d="M229.571 261.389C244.139 263.194 247.831 262.208 261.547 259.269C264.262 260.405 265.184 261.19 267.328 263.049C260.322 265.241 253.782 267.392 246.517 268.63C244.277 269.012 234.146 269.092 233.201 269.52C232.377 266.351 231.2 264.198 229.571 261.389Z" fill="#43729D"/>
<path d="M312.283 238.588C318.042 233.809 320.332 232.08 324.47 225.802C328.723 227.393 331.822 229.175 333.649 233.5C338.697 245.45 329.945 252.498 322.439 259.338C323.935 254.283 324.132 252.706 322.727 247.563C321.353 244.817 318.68 242.191 316.444 240.14C314.855 239.336 314.488 239.229 312.724 239.179C313.268 239.579 313.457 239.829 314.048 239.963C317.451 242.167 320.182 245.18 321.861 248.905C323.199 253.105 322.807 255.221 321.82 259.401C316.649 264.449 305.635 270.292 299.095 273.866C299.868 270.278 300.567 265.23 299.306 261.659C298.022 257.711 295.675 254.56 292.223 252.278C290.508 251.975 289.312 251.327 287.729 250.611C293.38 249.306 297.5 246.633 302.027 243.036C303.063 242.212 305.112 240.343 306.207 239.857C306.802 240.989 306.554 240.96 307.479 241.429C308.983 241.018 310.918 239.515 312.283 238.588Z" fill="#6B9EBF"/>
<path d="M312.283 238.588C318.042 233.809 320.332 232.08 324.47 225.802C328.723 227.393 331.822 229.175 333.649 233.5C338.697 245.45 329.945 252.498 322.439 259.338C323.935 254.283 324.132 252.706 322.727 247.563C321.353 244.817 318.68 242.191 316.444 240.14C314.855 239.336 314.488 239.229 312.724 239.179C313.268 239.579 313.457 239.829 314.048 239.963C312.213 240.611 311.37 241.614 309.645 242.515C306.279 244.273 294.407 249.868 292.223 252.278C290.508 251.975 289.312 251.327 287.729 250.611C293.38 249.306 297.5 246.633 302.027 243.036C303.063 242.212 305.112 240.343 306.207 239.857C306.802 240.989 306.554 240.96 307.479 241.429C308.983 241.018 310.918 239.515 312.283 238.588Z" fill="#43729D"/>
<path d="M316.444 240.14L316.815 239.909C322.701 236.186 324.446 230.378 329.96 238.131C327.949 244.087 327.761 244.132 322.727 247.563C321.353 244.817 318.68 242.191 316.444 240.14Z" fill="#6B9EBF"/>
<path d="M321.861 248.905C323.199 253.105 322.807 255.221 321.82 259.401C316.649 264.449 305.635 270.292 299.095 273.866C299.868 270.278 300.567 265.23 299.306 261.659C302.371 259.285 321.086 250.22 321.861 248.905Z" fill="#43729D"/>
<path d="M115.738 173.996C135.056 169.038 150.812 165.713 170.869 163.77C170.65 168.815 170.014 170.747 167.264 175.162C166.555 176.3 165.453 177.671 165.031 178.888C153.771 183.552 142.741 188.752 131.979 194.47C129.031 192.613 124.112 191.873 120.661 188.308C116.368 183.874 115.887 179.826 115.738 173.996Z" fill="#FB918E"/>
<path d="M150.129 168.848C150.492 169.21 150.338 168.964 150.41 169.672C149.521 170.329 148.281 170.332 147.139 170.464C146.74 170.042 146.88 170.19 146.696 169.569C147.757 168.838 148.697 168.983 150.129 168.848Z" fill="#000001"/>
<path d="M132.782 249.684C140.493 250.922 149.188 252.176 156.663 254.268L154.887 259.521C152.536 267.217 151.662 270.107 151.076 278.249C151.059 280.766 151.165 282.955 151.308 285.472C142.039 282.909 131.746 280.97 122.115 278.375C121.875 275.918 121.75 273.209 122.2 270.782C122.537 266.164 124.057 259.416 126.456 255.423L127.843 254.892C129.713 253.165 131.087 251.595 132.782 249.684Z" fill="#6B9EBF"/>
<path d="M132.782 249.684C140.493 250.922 149.188 252.176 156.663 254.268L154.887 259.521C152.621 256.843 132.229 256.148 127.843 254.892C129.713 253.165 131.087 251.595 132.782 249.684Z" fill="#43729D"/>
<path d="M122.115 278.375C121.875 275.918 121.75 273.209 122.2 270.782C122.212 271.937 122.074 273.698 122.604 274.627C129.151 277.637 143.524 279.962 150.669 281.135C150.718 280.244 150.659 278.914 151.076 278.249C151.059 280.766 151.165 282.955 151.308 285.472C142.039 282.909 131.746 280.97 122.115 278.375Z" fill="#43729D"/>
<path d="M102.283 241.978C105.266 243.329 110.161 246.053 112.663 244.62C112.686 244.607 113.627 244.362 113.679 244.348C118.432 247.169 121.799 250.019 127.515 249.358L127.962 249.622C126.698 251.667 125.671 253.141 124.904 255.428C122.159 261.857 121.587 264.457 120.752 271.361C120.717 273.82 120.778 275.894 120.899 278.353C111.318 275.56 100.579 272.568 91.3512 269.029C91.0692 267.401 90.7962 265.773 90.5322 264.143C90.8232 257.179 93.5132 252.82 97.8262 247.572C99.3162 245.545 100.659 243.904 102.283 241.978Z" fill="#6B9EBF"/>
<path d="M102.283 241.978C105.266 243.329 110.161 246.053 112.663 244.62C112.686 244.607 113.627 244.362 113.679 244.348C118.432 247.169 121.799 250.019 127.515 249.358L127.962 249.622C126.698 251.667 125.671 253.141 124.904 255.428C123.193 254.864 117.633 254.49 115.36 253.984C108.755 252.511 103.913 250.317 97.8262 247.572C99.3162 245.545 100.659 243.904 102.283 241.978Z" fill="#43729D"/>
<path d="M90.5322 264.143C93.6242 265.025 119.514 273.819 120.305 273.481C120.397 272.853 120.457 271.838 120.752 271.361C120.717 273.82 120.778 275.894 120.899 278.353C111.318 275.56 100.579 272.568 91.3512 269.029C91.0692 267.401 90.7962 265.773 90.5322 264.143Z" fill="#43729D"/>
<path d="M270.068 256.375C270.736 257.94 270.41 257.885 271.585 258.574C276.421 258.5 280.341 252.894 284.459 250.993C285.988 250.287 289.43 252.514 291.072 253.396C293.934 253.85 297.158 260.058 298.055 262.597C298.953 267.266 298.877 269.641 297.995 274.316C289.955 277.823 280.775 282.269 272.304 284.051C273.156 281.095 273.412 278.515 273.799 275.485C273.245 269.993 272.147 267.129 268.828 262.78C267.113 260.989 265.646 259.956 263.656 258.462L270.068 256.375Z" fill="#6B9EBF"/>
<path d="M298.055 262.597C298.953 267.266 298.877 269.641 297.995 274.316C289.955 277.823 280.775 282.269 272.304 284.051C273.156 281.095 273.412 278.515 273.799 275.485C276.257 274.922 293.707 264.609 298.055 262.597Z" fill="#43729D"/>
<path d="M270.068 256.375C270.736 257.94 270.41 257.885 271.585 258.574C276.421 258.5 280.341 252.894 284.459 250.993C285.988 250.287 289.43 252.514 291.072 253.396C285.62 255.543 280.303 257.92 274.991 260.387C273.658 261.007 269.564 262.324 268.828 262.78C267.113 260.989 265.646 259.956 263.656 258.462L270.068 256.375Z" fill="#43729D"/>
<path d="M258.553 192.839C263.969 195.035 265.887 198.343 267.327 203.745C267.888 207.071 267.791 211.583 265.418 214.189C256.206 224.309 242.704 215.608 236.523 207.361C234.985 205.573 234.079 201.994 236.13 200.22C239.093 197.658 242.523 197.526 246.179 197.567C249.917 200.103 251.938 203.227 254.584 206.81C255.87 208.631 257.635 211.296 259.072 212.895C258.128 210.468 257.361 208.595 256.228 206.257C253.438 202.745 253.387 201.15 249.499 197.369C252.682 195.639 255.203 194.254 258.553 192.839Z" fill="#FB918E"/>
<path d="M258.553 192.839C263.969 195.035 265.887 198.343 267.327 203.745C262.475 202.028 259.008 200.027 256.228 206.257C253.438 202.745 253.387 201.15 249.499 197.369C252.682 195.639 255.203 194.254 258.553 192.839Z" fill="#D45B5B"/>
<path d="M236.523 207.361C234.985 205.573 234.079 201.994 236.13 200.22C239.093 197.658 242.523 197.526 246.179 197.567C249.917 200.103 251.938 203.227 254.584 206.81C250.355 205.052 246.923 201.247 241.748 203.338C239.778 204.134 237.983 205.862 236.523 207.361Z" fill="#D45B5B"/>
<path d="M339.352 137.267C345.02 137.165 350.55 136.997 356.218 137.34C365.06 148.454 368.854 153.893 372.063 168.267C368.003 161.322 366.25 158.4 359.841 153.602C362.328 157.966 365.009 160.757 367.897 166.124C354.705 160.67 349.112 158.801 334.962 155.354C335.721 154.42 337.374 153.078 338.314 152.123C343.518 146.839 342.555 143.439 339.352 137.267Z" fill="#C17E4F"/>
<path d="M302.158 142.78C314.555 139.505 326.472 137.536 339.352 137.267C342.555 143.439 343.518 146.839 338.314 152.123C337.374 153.078 335.721 154.42 334.962 155.354C325.746 152.97 316.79 152.225 307.335 151.959C305.629 148.062 304.727 146.125 302.158 142.78Z" fill="#FB918E"/>
<path d="M319.247 143.04C322.219 142.735 330.248 142.738 332.685 144.504C332.375 144.499 332.066 144.492 331.756 144.483C329.357 144.402 322.687 144.125 319.899 143.739C319.682 143.506 319.464 143.273 319.247 143.04Z" fill="#000001"/>
<path d="M264.632 128.901C268.261 128.644 278.766 128.567 280.773 131.789C280.776 132.881 280.408 133.719 279.568 134.423C271.894 140.864 262.919 142.511 253.551 142.507C247.726 141.851 245.455 141.429 239.942 139.897C241.603 138 245.566 134.875 247.685 133.007C245.957 133.532 245.518 133.694 243.732 133.751L243.809 133.5C249.242 130.785 258.525 129.356 264.632 128.901Z" fill="#292B42"/>
<path d="M251.67 135.381C254.744 135.108 256.891 134.819 259.198 137.3C259.787 139.746 258.018 140.182 256.035 140.9C255.623 140.971 255.209 141.027 254.793 141.069C252.671 141.265 250.839 140.894 249.196 139.531C248.168 137.217 249.859 136.458 251.67 135.381Z" fill="#FCFBF4"/>
<path d="M304.967 30.1893C310.314 39.7476 312.458 54.2676 302.384 61.5753C301.152 60.889 300.559 60.3254 300.174 59.0268C299.763 58.6441 298.792 57.9556 298.304 57.5851L297.431 57.1545C293.939 58.7387 291.199 56.819 292.373 53.2381C292.195 52.8088 292.035 52.7709 291.641 52.409C290.249 53.0894 290.603 53.1567 289.241 53.0865L289.03 52.4557C290.1 50.069 295.757 44.84 298 43.2496L298.171 42.9385C300.302 40.8876 302.058 33.8412 304.967 30.1893Z" fill="#FB918E"/>
<path d="M298 43.2496C297.916 44.9359 296.865 47.682 295.924 49.0002C295.234 49.8256 294.464 50.7951 293.728 51.5625C292.84 52.2868 292.874 52.2157 292.373 53.2381C292.195 52.8088 292.035 52.7709 291.641 52.409C290.249 53.0894 290.603 53.1567 289.241 53.0865L289.03 52.4557C290.1 50.069 295.757 44.84 298 43.2496Z" fill="#D45B5B"/>
<path d="M291.641 52.409C292.563 51.7869 293.767 50.0139 295.425 48.8424L295.924 49.0002C295.234 49.8256 294.464 50.7951 293.728 51.5625C292.84 52.2868 292.874 52.2157 292.373 53.2381C292.195 52.8088 292.035 52.7709 291.641 52.409Z" fill="#623434"/>
<path d="M293.728 51.5625C294.764 53.0138 296.425 55.4844 297.577 56.7012L297.431 57.1545C293.939 58.7387 291.199 56.819 292.373 53.2381C292.874 52.2157 292.84 52.2868 293.728 51.5625Z" fill="#D45B5B"/>
<path d="M297.577 56.7012C298.776 55.6598 300.005 54.5136 301.326 53.6509C300.376 54.9686 299.41 56.413 298.304 57.5851L297.431 57.1545L297.577 56.7012Z" fill="#572310"/>
<path d="M187.771 162.714C190.838 162.372 196.307 162.486 199.528 162.498C198.851 164.594 198.256 166.391 197.772 168.538C190.6 170.072 185.382 171.733 178.352 173.984C174.838 175.546 168.773 177.556 165.031 178.888C165.453 177.671 166.555 176.3 167.264 175.162C170.014 170.747 170.65 168.815 170.869 163.77C175.832 163.167 182.716 162.959 187.771 162.714Z" fill="#C17E4F"/>
<path d="M187.771 162.714C190.838 162.372 196.307 162.486 199.528 162.498C198.851 164.594 198.256 166.391 197.772 168.538C190.6 170.072 185.382 171.733 178.352 173.984C178.992 171.31 185.689 164.845 187.771 162.714Z" fill="#FBD5AB"/>
<path d="M286.139 47.4664L286.253 46.8351C287.573 39.7211 290.496 24.4549 300.498 26.3599C302.559 26.7524 303.907 28.535 304.967 30.1893C302.058 33.8412 300.302 40.8876 298.171 42.9385L297.471 42.4348C295.158 42.4168 288.36 46.271 286.139 47.4664Z" fill="#D45B5B"/>
<path d="M89.9238 228.182C90.5928 229.063 90.6988 231.79 90.8818 233.054C91.4208 236.755 92.0908 239.803 93.3198 243.342L90.3248 240.398C88.2438 238.119 86.2258 235.644 84.2368 233.275C86.0238 231.864 88.2038 229.754 89.9238 228.182Z" fill="#A2582E"/>
<path d="M52.8521 197.365C54.5651 196.411 57.5341 195.286 59.4401 194.502L59.9751 195.173C57.9611 198.634 55.7651 202.149 53.6801 205.582C53.2991 202.855 53.0231 200.114 52.8521 197.365Z" fill="#C17E4F"/>
<path d="M94.141 237.516C96.435 238.891 98.964 240.484 101.324 241.69C100.704 242.398 96.527 247.284 96.113 247.623C95.016 247.007 95.4 247.189 94 247.205C96.581 244.39 94.989 240.849 94.141 237.516Z" fill="#43729D"/>
<path d="M300.174 59.0269C300.559 60.3255 301.152 60.8891 302.384 61.5754L299.121 64.4C298.141 63.2337 296.912 61.9712 295.864 60.8384C297.238 60.1722 298.752 59.6005 300.174 59.0269Z" fill="#D45B5B"/>
<path d="M126.456 255.423C126.957 253.847 128.826 249.512 130.647 249.644C130.606 250.522 128.377 253.144 127.648 254.162L127.843 254.892L126.456 255.423Z" fill="#43729D"/>
<path d="M353.292 123.645C352.133 124.253 350.472 125.28 349.207 125.005C350.07 123.982 351.874 123.321 353.161 122.717L353.292 123.645Z" fill="#565663" fill-opacity="0.988235"/>
<path d="M439.637 166.851L441.712 181.059C443.177 190.652 441.102 193.202 431.336 193.93L427.429 194.173C417.663 194.902 414.978 192.594 414.245 182.88L409.118 114.272C408.386 105.043 410.949 101.643 419.983 99.8215C425.964 98.6072 432.068 98 437.928 98C470.278 98 487.857 110.993 487.857 133.822C487.857 150.458 471.987 166.73 439.637 166.851ZM436.463 145.358C446.961 143.294 457.704 138.558 457.704 130.058C457.704 122.286 451.6 119.25 444.398 119.25C440.613 119.25 436.585 120.1 433.045 121.558L436.463 145.358Z" fill="#8C5E5A"/>
<path d="M539.882 144.872L516.321 185.673C512.781 191.866 510.461 193.202 503.381 193.08H503.137C496.179 192.959 494.47 191.259 494.592 184.337L495.812 110.629C496.057 100.914 498.498 98.3643 508.264 99.0929L511.438 99.3357C521.204 100.064 523.401 102.372 522.669 112.086L520.594 137.222L540.126 107.472C545.009 100.186 548.061 98.7286 557.094 99.3357C565.884 99.9429 567.959 102.25 567.959 110.993L567.837 180.209C567.837 190.044 565.517 192.594 555.629 192.837L549.159 192.959C539.393 193.202 537.074 191.016 537.684 181.301L539.882 144.872Z" fill="#8C5E5A"/>
<path d="M625.744 125.2L622.448 183.366C621.838 193.08 619.274 195.266 609.508 194.294L608.287 194.173C598.399 193.202 596.08 190.652 596.202 180.816L596.69 126.415L588.023 126.658C578.989 126.9 576.548 124.836 575.571 115.607C574.595 106.622 576.548 104.314 585.581 103.707L632.947 100.793C642.591 100.186 645.154 102.493 645.154 112.329C645.154 122.043 642.835 124.472 633.069 124.836L625.744 125.2Z" fill="#8C5E5A"/>
<path d="M732.098 103.829L733.319 104.679C741.254 110.143 742.231 112.815 736.249 120.343L682.536 187.494C676.432 195.144 673.014 195.63 665.079 189.923L663.126 188.466C655.313 182.88 654.947 179.601 661.539 172.558L681.437 151.429L653.97 122.65C647.256 115.729 647.622 112.45 655.435 106.743L660.074 103.343C668.009 97.6357 671.427 98.1214 677.165 106.014L696.697 132.729L714.52 107.593C720.257 99.5786 724.041 98.1214 732.098 103.829Z" fill="#8C5E5A"/>
<path d="M776.638 160.415L792.263 159.444L783.596 130.908L776.638 160.415ZM801.053 110.629L825.468 176.08C828.886 185.187 827.299 188.223 818.021 190.894C805.325 194.537 802.274 192.837 799.466 183.487L797.39 176.566L773.22 178.266L771.755 184.701C769.679 194.294 766.872 196.116 757.228 194.294L753.566 193.687C744.044 191.866 742.335 188.952 745.264 179.844L767.116 109.9C770.046 100.429 772.975 98.4857 782.986 98.7286C794.583 99.0929 797.513 101.279 801.053 110.629Z" fill="#8C5E5A"/>
<path d="M901.246 101.643C911.012 101.4 913.453 103.707 913.209 113.422L911.5 180.694C911.256 190.409 908.815 192.473 899.049 192.473H895.508C885.742 192.473 883.423 189.68 883.911 179.966L886.841 121.072L865.356 123.136L866.454 163.451C866.821 179.116 861.205 191.016 843.016 193.93C834.105 195.387 833.372 194.659 832.64 187.737L831.907 180.451C830.809 169.887 836.912 175.23 839.354 169.401C840.575 166.608 840.941 162.723 840.819 157.744L839.354 115.729C838.988 106.014 841.307 103.464 851.073 103.222L901.246 101.643Z" fill="#8C5E5A"/>
<path d="M968.098 144.872L944.538 185.673C940.998 191.866 938.678 193.202 931.598 193.08H931.354C924.395 192.959 922.686 191.259 922.808 184.337L924.029 110.629C924.273 100.914 926.715 98.3643 936.481 99.0929L939.655 99.3357C949.421 100.064 951.618 102.372 950.886 112.086L948.81 137.222L968.342 107.472C973.225 100.186 976.277 98.7286 985.311 99.3357C994.1 99.9429 996.176 102.25 996.176 110.993L996.053 180.209C996.053 190.044 993.734 192.594 983.846 192.837L977.376 192.959C967.61 193.202 965.291 191.016 965.901 181.301L968.098 144.872Z" fill="#8C5E5A"/>
<path d="M1054.94 146.208L1081.92 171.83C1088.87 178.509 1088.63 181.544 1081.55 188.223L1079.35 190.287C1072.03 196.723 1068.61 196.602 1061.9 189.437L1034.31 159.808L1033.94 179.966C1033.82 189.68 1031.62 192.23 1021.73 193.687C1012.33 195.023 1009.77 192.959 1009.4 183.487L1006.47 114.029C1006.11 104.314 1008.43 101.764 1018.19 101.157L1024.3 100.793C1033.94 100.186 1036.38 102.614 1035.65 112.207L1034.18 132.122L1054.21 105.893C1060.19 98 1063.6 97.5143 1071.78 102.857L1072.52 103.343C1080.57 108.686 1081.18 111.965 1075.2 119.736L1054.94 146.208Z" fill="#8C5E5A"/>
</g>
<defs>
<linearGradient id="paint0_linear_67_17" x1="86.6042" y1="92.2609" x2="76.2213" y2="94.5766" gradientUnits="userSpaceOnUse">
<stop stop-color="#F89B87"/>
<stop offset="1" stop-color="#E5786A"/>
</linearGradient>
<clipPath id="clip0_67_17">
<rect width="1087" height="293" fill="white"/>
</clipPath>
</defs>
</svg>
